<svg xmlns="http://www.w3.org/2000/svg" width="328.408" height="218.939" viewBox="0 0 328.408 218.939" fill="none">
  <path d="M 0 153.257 L 43.78 153.257 L 43.78 175.151 L 109.45 175.151 L 109.45 131.363 L 21.89 131.363 L 21.89 109.469 L 0 109.469 L 0 21.894 L 21.89 21.894 L 21.89 0 L 131.34 0 L 131.34 21.894 L 153.231 21.894 L 153.231 65.682 L 109.45 65.682 L 109.45 43.788 L 43.78 43.788 L 43.78 87.576 L 131.34 87.576 L 131.34 109.469 L 153.231 109.469 L 153.231 197.045 L 131.34 197.045 L 131.34 218.939 L 21.89 218.939 L 21.89 197.045 L 0 197.045 L 0 153.257 Z" fill="currentColor" fill-rule="nonzero"></path>
  <path d="M 240.848 87.576 L 328.408 87.576 L 328.408 197.045 L 306.518 197.045 L 306.518 218.939 L 197.068 218.939 L 197.068 197.045 L 175.178 197.045 L 175.178 21.894 L 197.068 21.894 L 197.068 0 L 306.518 0 L 306.518 21.894 L 328.408 21.894 L 328.408 65.682 L 284.628 65.682 L 284.628 43.788 L 240.848 43.788 L 240.848 65.682 L 218.958 65.682 L 218.958 153.257 L 240.848 153.257 L 240.848 175.151 L 284.628 175.151 L 284.628 131.363 L 240.848 131.363 L 240.848 87.576 Z" fill="currentColor" fill-rule="nonzero"></path>
</svg>