<svg xmlns="http://www.w3.org/2000/svg" width="328.479" height="39.096" viewBox="0 0 328.479 39.096" fill="none">
  <path d="M 0 27.367 L 7.819 27.367 L 7.819 31.277 L 19.548 31.277 L 19.548 23.458 L 3.91 23.458 L 3.91 19.548 L 0 19.548 L 0 3.91 L 3.91 3.91 L 3.91 0 L 23.458 0 L 23.458 3.91 L 27.367 3.91 L 27.367 11.729 L 19.548 11.729 L 19.548 7.819 L 7.819 7.819 L 7.819 15.638 L 23.458 15.638 L 23.458 19.548 L 27.367 19.548 L 27.367 35.187 L 23.458 35.187 L 23.458 39.096 L 3.91 39.096 L 3.91 35.187 L 0 35.187 L 0 27.367 Z" fill="currentColor" fill-rule="nonzero"></path>
  <path d="M 31.287 3.91 L 35.197 3.91 L 35.197 0 L 54.745 0 L 54.745 3.91 L 58.654 3.91 L 58.654 35.187 L 54.745 35.187 L 54.745 39.096 L 35.197 39.096 L 35.197 35.187 L 31.287 35.187 L 31.287 3.91 Z M 46.926 27.367 L 50.835 27.367 L 50.835 11.729 L 46.926 11.729 L 46.926 7.819 L 43.016 7.819 L 43.016 11.729 L 39.106 11.729 L 39.106 27.367 L 43.016 27.367 L 43.016 31.277 L 46.926 31.277 L 46.926 27.367 Z" fill="currentColor" fill-rule="nonzero"></path>
  <path d="M 78.213 27.367 L 82.122 27.367 L 82.122 0 L 89.942 0 L 89.942 35.187 L 86.032 35.187 L 86.032 39.096 L 66.484 39.096 L 66.484 35.187 L 62.574 35.187 L 62.574 0 L 70.394 0 L 70.394 27.367 L 74.303 27.367 L 74.303 31.277 L 78.213 31.277 L 78.213 27.367 Z" fill="currentColor" fill-rule="nonzero"></path>
  <path d="M 109.5 27.367 L 105.59 27.367 L 105.59 19.548 L 101.681 19.548 L 101.681 39.096 L 93.861 39.096 L 93.861 0 L 105.59 0 L 105.59 7.819 L 109.5 7.819 L 109.5 15.638 L 113.41 15.638 L 113.41 23.458 L 117.319 23.458 L 117.319 0 L 125.138 0 L 125.138 39.096 L 113.41 39.096 L 113.41 35.187 L 109.5 35.187 L 109.5 27.367 Z" fill="currentColor" fill-rule="nonzero"></path>
  <path d="M 129.068 0 L 152.526 0 L 152.526 3.91 L 156.436 3.91 L 156.436 35.187 L 152.526 35.187 L 152.526 39.096 L 129.068 39.096 L 129.068 0 Z M 144.707 27.367 L 148.617 27.367 L 148.617 11.729 L 144.707 11.729 L 144.707 7.819 L 136.888 7.819 L 136.888 31.277 L 144.707 31.277 L 144.707 27.367 Z" fill="currentColor" fill-rule="nonzero"></path>
  <path d="M 160.356 27.367 L 168.175 27.367 L 168.175 31.277 L 179.904 31.277 L 179.904 23.458 L 164.265 23.458 L 164.265 19.548 L 160.356 19.548 L 160.356 3.91 L 164.265 3.91 L 164.265 0 L 183.813 0 L 183.813 3.91 L 187.723 3.91 L 187.723 11.729 L 179.904 11.729 L 179.904 7.819 L 168.175 7.819 L 168.175 15.638 L 183.813 15.638 L 183.813 19.548 L 187.723 19.548 L 187.723 35.187 L 183.813 35.187 L 183.813 39.096 L 164.265 39.096 L 164.265 35.187 L 160.356 35.187 L 160.356 27.367 Z" fill="currentColor" fill-rule="nonzero"></path>
  <path d="M 218.979 15.638 L 234.618 15.638 L 234.618 35.187 L 230.708 35.187 L 230.708 39.096 L 211.16 39.096 L 211.16 35.187 L 207.251 35.187 L 207.251 3.91 L 211.16 3.91 L 211.16 0 L 230.708 0 L 230.708 3.91 L 234.618 3.91 L 234.618 11.729 L 226.799 11.729 L 226.799 7.819 L 218.979 7.819 L 218.979 11.729 L 215.07 11.729 L 215.07 27.367 L 218.979 27.367 L 218.979 31.277 L 226.799 31.277 L 226.799 23.458 L 218.979 23.458 L 218.979 15.638 Z" fill="currentColor" fill-rule="nonzero"></path>
  <path d="M 238.538 3.91 L 242.447 3.91 L 242.447 0 L 261.996 0 L 261.996 3.91 L 265.905 3.91 L 265.905 35.187 L 261.996 35.187 L 261.996 39.096 L 242.447 39.096 L 242.447 35.187 L 238.538 35.187 L 238.538 3.91 Z M 254.176 27.367 L 258.086 27.367 L 258.086 11.729 L 254.176 11.729 L 254.176 7.819 L 250.267 7.819 L 250.267 11.729 L 246.357 11.729 L 246.357 27.367 L 250.267 27.367 L 250.267 31.277 L 254.176 31.277 L 254.176 27.367 Z" fill="currentColor" fill-rule="nonzero"></path>
  <path d="M 269.825 3.91 L 273.735 3.91 L 273.735 0 L 293.283 0 L 293.283 3.91 L 297.192 3.91 L 297.192 35.187 L 293.283 35.187 L 293.283 39.096 L 273.735 39.096 L 273.735 35.187 L 269.825 35.187 L 269.825 3.91 Z M 285.463 27.367 L 289.373 27.367 L 289.373 11.729 L 285.463 11.729 L 285.463 7.819 L 281.554 7.819 L 281.554 11.729 L 277.644 11.729 L 277.644 27.367 L 281.554 27.367 L 281.554 31.277 L 285.463 31.277 L 285.463 27.367 Z" fill="currentColor" fill-rule="nonzero"></path>
  <path d="M 301.112 0 L 324.57 0 L 324.57 3.91 L 328.479 3.91 L 328.479 35.187 L 324.57 35.187 L 324.57 39.096 L 301.112 39.096 L 301.112 0 Z M 316.751 27.367 L 320.66 27.367 L 320.66 11.729 L 316.751 11.729 L 316.751 7.819 L 308.931 7.819 L 308.931 31.277 L 316.751 31.277 L 316.751 27.367 Z" fill="currentColor" fill-rule="nonzero"></path>
</svg>